<?xml version="1.0" encoding="utf-8"?>
<!-- Generator: Adobe Illustrator 23.0.0, SVG Export Plug-In . SVG Version: 6.00 Build 0)  -->
<svg version="1.1" id="Layer_1" xmlns="http://www.w3.org/2000/svg" xmlns:xlink="http://www.w3.org/1999/xlink" x="0px" y="0px"
	 viewBox="0 0 439.9 271.3" style="enable-background:new 0 0 439.9 271.3;" xml:space="preserve">
<style type="text/css">
	.st0{fill-rule:evenodd;clip-rule:evenodd;fill:#BE3E41;}
	.st1{fill-rule:evenodd;clip-rule:evenodd;fill:#FBE1D7;}
</style>
<g id="Слой_x0020_1">
	<path class="st0" d="M65.2,13.2C46.4,30.3,41,49.9,32.3,73.4c-1.1,3.1,1.3,5-2.9,15.7c-6.7,17.1-0.3,15.9-13.7,40.8
		c-1.4,2.6-16,67.9-15.7,68c9.4,5.8-16,36.5,24.9,66.5c14,10.3,79.5,7.1,98.5,2.6c18.9-4.5,45.2,0.2,60.1-5.3
		c12-4.4,31.6,15,78.8-11.5c0.8-0.5,16.7,7,26.2,7c12.7,0,113.3-5.6,116.6-7.3c27.1-14.4,31.1-31.8,34.7-61.1
		c2-16.1-15.4-52.1-25-64.7c-23.9-31.4-22.2-20.5-42.3-40.6c-20.9-20.9,2.6-9.6-33-20.6c-18.1-5.6-57.5-30.5-72.1-32.4
		c-3.5-0.4-29.5-13.6-47.2-12.8C200.5,18.7,176.4,0,133.3,0C99.5,0,98.8-1.1,68.8,11.2C68.2,11.4,67.9,10.8,65.2,13.2L65.2,13.2z"/>
	<path class="st1" d="M1,228.7c0-8.6,13-39.8,13.8-48.7c1-11,6.5-17.8,7-22.9c1.1-10.8,13.3-27.4,13.3-28.2
		c1.8-16.4,2.9-24.8,9.1-40.6c2.7-6.8,15.2-28.9,22.2-31.1c4.1-1.3,19.8-25.5,16.4-32.2c-11-21.5,19.1-18.6,26-21.4
		c7.6-3,63.3,6,68,8.7c10.7,5.9,11.9,3.2,21.6,6c8.5,2.4,25,9,32.5,9c15.6,0,29.1,19.7,35.6,21.9c25.4,8.4,18.3,7.3,36.1,23.8
		c5.2,4.8,5.6,19.8,3.5,23.1c-5.1,8-4.6,10.5-16.1,6.7c-10.3-3.5,8.1-3.9,10.5-6.7c9.6-11.4,2.8-15.2-6.1-20
		c-6.6-3.6-15.4-1-22.4,0.8c-2.9-18.4-17.6-9.6-25.5-14.3c-8-4.7-33.5-4-37.2,0.4c-5.6,9.8,3.2,5,9.5,18.2
		c4.2,8.8,18.3,9.9,12.6,14.6c-5.8,4.7-22.5,2.5-34.1,14.8c-18.1,19.1-8.2,25.8-15.5,35c-4.7,5.9,13.1-16.6,16.6-17.6
		c13.7-3.9,23.1-8.7,39.1-9.1c37.5-1.1,33.8-14.7,71.9,8.5c2.6,1.6,16.6,16.1,16.7,16.1c1.4-9.1,33.3-7.8,40.6-13.5
		c5.3-4.1,36.2-9.1,39.6-3.5c10.4,17,15.9,10.6,20.8,35.7c2.1,10.9,6,3,6,25.6c0,6.6-1.3,6.3,5.8,7.5c0.3-2.1,0.6-4.2,0.8-6.5
		c2-16.1-15.4-52.1-25-64.7c-23.9-31.4-22.2-20.5-42.3-40.6c-20.9-20.9,2.6-9.6-33-20.6c-18.1-5.6-57.5-30.5-72.1-32.4
		c-3.5-0.4-29.5-13.6-47.2-12.8C200.5,18.7,176.4,0,133.3,0C99.5,0,98.8-1.1,68.8,11.2c-0.6,0.2-0.9-0.4-3.6,2
		C46.4,30.3,41,49.9,32.3,73.4c-1.1,3.1,1.3,5-2.9,15.7c-6.7,17.1-0.3,15.9-13.7,40.8c-1.4,2.6-16,67.9-15.7,68
		C5.5,201.4-0.9,213.4,1,228.7L1,228.7z"/>
	<path class="st1" d="M143.4,68c-16.1,8.9-18.6,14.7-35.4,15.6c-6.7,0.4-15.9,4.6-15.9,14.3c0,21.9-11.9,20.8-4.2,28.4
		c2.9,2.9-3.2,32.1-1.6,11.5c0.1-0.8,15.9-29,17.7-32.7C108.6,95.6,154.7,89.6,143.4,68L143.4,68z"/>
	<path class="st1" d="M59.4,139.2c18,0,34.2,0.7,18.5,20.7c-3.7,4.8-7.2,17-10.6,10.3c-3.3-6.5,5.8-11.4-9-29.2
		C57.5,140.1,58,139.2,59.4,139.2L59.4,139.2z"/>
	<path class="st1" d="M67.4,176.5c-12.1-12-4.9,2.9-13.9-14.4c-1.2-2.3-11.2-5.9-11.2,9.3c0,9.6,6.8,7,6.1,26.7
		c-0.1,2.4,2.2,1.4,1.4,7.1c-0.2,1.4-5.5,10.3-5.6,10.3c-4.3-16.4,4.5-15.8-15.4-28.7c-2.6-1.7-7.4-25.6-7.4,6
		c0,10.8-5.4,54.1,15.3,44.2c9.9-4.7,2.9,15,3.6,16.7c2.8,7.1,14.3,1.2,24.1,6.4c6.7,3.5,11.8-3.5,7.2,7.4c-2,4.9,12.1,1.2,16.4,1.2
		c6.4,0,25.6-3.8,16.8-13.1c-8.7-9.2-0.6-8.3-19.3-15c-4.4-1.6-12.6-8.1-18.9-8.6c-8.6-0.8-14.6-14.7-14.6-23.5
		c0-8.4,3.9-6.8,9.6-15.8c2.4-3.9,0.4-5.8,5.7-13.8C67.8,177.9,67.9,177,67.4,176.5L67.4,176.5z"/>
	<path class="st1" d="M197.1,223.5c-12.3-3.5-22.9,1.1-31.6,9c-6.1,5.6-25.4,7.8-8.3,16.9c6.8,3.6,33.4,4.4,39.2,0.2
		c30.7-22.3,60.2-2.2,92,4.5c10.1,2.1,8.9,0.6,2.2-5.7c-5.4-5.1-21.1-4.8-30.4-12.3c-4.4-3.5-58.3-7.2-66.5-2.2
		c-3,1.8-8.4-0.6,2.1-9C196.4,224.4,196.7,223.4,197.1,223.5L197.1,223.5z"/>
	<path class="st1" d="M218.8,214.6c6.3-10.5,19.4-6.6,32.9-14.3c7.4-4.2,11-0.4,22.9-10.9c9.3-8.2,14.8,5.6,21.2-5.8
		c6.1-10.7,0.2,6.9,7.6,10.8c6.6,3.4,5.3,5.4-0.9,2.2c-0.3-0.1-17.9-3.2-6.1,10.6c3.5,4.1-15.9,9.8-9.8-4c0.1-0.3,1.4-8.3-2.3-8.5
		c-21.2-1.1-11.3,10.1-24.6,12.4c-15,2.7-7.8-4.7-24.5,5.4C231.8,214.7,221.8,218.4,218.8,214.6L218.8,214.6z"/>
	<path class="st1" d="M370.7,253l-20.6,1.3c0,0,7.8-4,11-5.2c9.5-3.4-5.3-11.8,1.6-11.2C367.7,238.3,377.8,248.3,370.7,253z"/>
	<path class="st1" d="M97.8,60.8c9.9,3.2,14.9-0.7,22.4-7.2c1.4-1.3-0.7-8.3,12.1-9.1c7.5-0.5,13.9-3.6,19.9-8.1
		c3.3-2.4,14.3,4.2,19.9,4.3c0.8,0,7.3,1.1,8.5,2.2c1.2,1.1,2.9,2.6,4.5,2.8c0-5.2-10.9-11.2-15.5-14.3c-6.7-4.5-15.4-0.7-14.6-3.5
		c0.9-2.9,28.8,0,29.5,2.8c2.5,10.2,1.6,3.9,6.9,7.9c3.9,2.9-4,7.7,12.8,7.4c7.5-0.2,4.5-6.1,18.2-6.1c5.9,0-11.8,4.2-12.1,8.4
		c-0.2,2.9-1.2,1,0,5.3c2.8,10-11.9,3-16.2-3c-3.3-4.6-17,2.9-21-2.2c-4.1-5.2-8.7-3.8-16.2-4c-17.7-0.6-9.1,6.8-26.2,5.9
		c-5.5-0.3-3.4,9.6-18.9,13.3c-6.1,1.5-7.6,1.8-13.2-1.6C98.4,61.8,97.8,60.9,97.8,60.8L97.8,60.8z"/>
	<path class="st1" d="M208.5,158.1c-17.4-1.6-11.4,10.4-23.9,9.4c-4.7-0.4,11.9,3.2,11.8,7.9c-0.5,14-7.8,18,4.7-1.7
		C202.7,171.1,210.6,158.3,208.5,158.1L208.5,158.1z"/>
	<path class="st1" d="M364.5,212.5c21.2,0,12.3-3.5,22.2-8.5c1.9-1-3.6,15.3,15.8,20c8.1,1.9,2.7,0.2,7.6,0.6
		c4.9,0.4-2.3,7.5-21.4-1.7C378.8,218.1,367.6,221.3,364.5,212.5L364.5,212.5z"/>
	<path class="st1" d="M219.5,140.9c5.2-0.5,3.4,2.8,13.4,2.8c6.5,0,13.4,0.8,19.5-1.4c3.7-1.4,5.6,2.3,13.2,2.3c8,0,6.8-1,13.6,2
		c4.6,2,9.3,3,13.2,6.3c4.6,3.9-5.7-1.9-9.4-2.4c-5.1-0.7-4.4-1.4-10.7-1.8c-1.3-0.1-18.6-3-19.6-3.5c-4.3-2.3-21,5.4-23.6,3.4
		c-1.6-1.3-7.6-5.5-9.6-5.4c-0.7,0-2.3-1.6-0.5-2C219,141.2,219.5,140.9,219.5,140.9z"/>
</g>
</svg>
